<svg xmlns="http://www.w3.org/2000/svg" version="1.1" xmlns:xlink="http://www.w3.org/1999/xlink" xmlns:svgjs="http://svgjs.dev/svgjs" width="1000" height="707" viewBox="0 0 1000 707"><g transform="matrix(1,0,0,1,-0.6060606060606233,0)"><svg viewBox="0 0 396 280" data-background-color="#282634" preserveAspectRatio="xMidYMid meet" height="707" width="1000" xmlns="http://www.w3.org/2000/svg" xmlns:xlink="http://www.w3.org/1999/xlink"><g id="tight-bounds" transform="matrix(1,0,0,1,0.2400000000000091,0)"><svg viewBox="0 0 395.52 280" height="280" width="395.52"><g><svg viewBox="0 0 395.52 280" height="280" width="395.52"><g><svg viewBox="0 0 395.52 280" height="280" width="395.52"><g><svg viewBox="0 0 395.52 280" height="280" width="395.52"><g><svg viewBox="0 0 395.52 280" height="280" width="395.52"><g transform="matrix(1,0,0,1,104.53504196836558,74.00336708925556)"><svg viewBox="0 0 186.44991606326883 131.99326582148888" height="131.99326582148888" width="186.44991606326883"><g><circle r="66" cx="93.22495803163442" cy="65.99663291074444" fill="#dcdcdc" data-fill-palette-color="accent"></circle></g></svg></g><path d="M209.933 0L210.428 27.916 207.437 27.969 207.031 5.078 198.334 20.79 197.297 20.769 188.049 5.455 188.455 28.306 185.504 28.358 185.008 0.443 188.358 0.383 197.763 15.574 206.942 0.053ZM210.569 252.084L210.074 280 207.083 279.947 207.489 257.056 198.24 272.45 197.204 272.391 188.506 256.759 188.1 279.61 185.149 279.557 185.645 251.642 188.995 251.701 197.854 267.217 207.578 252.031ZM61.452 143.968C61.452 138.078 66.227 133.303 72.118 133.303 78.008 133.303 82.783 138.078 82.783 143.968 82.783 149.858 78.008 154.633 72.118 154.633 66.227 154.633 61.452 149.858 61.452 143.968ZM312.737 143.968C312.737 138.078 317.512 133.303 323.402 133.303 329.293 133.303 334.068 138.078 334.068 143.968 334.068 149.858 329.293 154.633 323.402 154.633 317.512 154.633 312.737 149.858 312.737 143.968Z" fill="#ff4057" data-fill-palette-color="primary"></path></svg></g></svg></g></svg></g></svg></g><defs></defs></svg><rect width="395.52" height="280" fill="none" stroke="none" visibility="hidden"></rect></g></svg></g></svg>